<svg fill="none" height="47" viewBox="0 0 48 47" width="48" xmlns="http://www.w3.org/2000/svg" xmlns:xlink="http://www.w3.org/1999/xlink"><clipPath id="a"><path d="m8 6h16v41h-16z"/></clipPath><path d="m24 7c-8.4 0-16 6.4-16 16.4 0 6.4 4.9 13.8 14.7 22.5.8.7 1.9.7 2.7 0 9.7-8.7 14.6-16.2 14.6-22.6 0-9.9-7.6-16.3-16-16.3z" fill="#e60606"/><path d="m38 19.8c5.2467 0 9.5-4.2533 9.5-9.5s-4.2533-9.5-9.5-9.5-9.5 4.2533-9.5 9.5 4.2533 9.5 9.5 9.5z" fill="#fff" stroke="#e60606"/><g clip-path="url(#a)"><path d="m24 7c-8.4 0-16 6.4-16 16.4 0 6.4 4.9 13.8 14.7 22.5.8.7 1.9.7 2.7 0 9.7-8.7 14.6-16.2 14.6-22.6 0-9.9-7.6-16.3-16-16.3z" fill="#003595"/></g><path d="m24 27.3c-2.2 0-4-1.8-4-4s1.8-4 4-4 4 1.8 4 4-1.8 4-4 4z" fill="#fff"/></svg>
